<?xml version="1.0" encoding="UTF-8"?>
<svg width="128px" height="128px" viewBox="0 0 128 128" version="1.1" xmlns="http://www.w3.org/2000/svg" xmlns:xlink="http://www.w3.org/1999/xlink">
    <!-- Generator: Sketch 53.2 (72643) - https://sketchapp.com -->
    <title>Closer.app Ikon</title>
    <desc>Created with Sketch.</desc>
    <g id="Closer.app-Ikon" stroke="none" stroke-width="1" fill="none" fill-rule="evenodd">
        <rect id="Rectangle" fill="#1F3C61" x="0" y="0" width="128" height="128"></rect>
        <path d="M19.4495765,69.8525998 C21.8680663,69.8525998 23.7824667,68.6256403 24.709788,66.7281571 L28,69.876626 C26.1472054,72.3965803 23.085397,74 19.4495765,74 C13.4551777,74 9.00030803,69.6587685 9,63.9997789 C9.00030803,58.3412315 13.4551777,54 19.4495765,54 C23.085705,54 26.1472054,55.6034197 28,58.123374 L24.7100961,61.2718429 C23.7824667,59.3743597 21.8680663,58.1474002 19.4495765,58.1474002 C16.0068901,58.1474002 13.5768492,60.6279987 13.5768492,63.9997789 C13.5768492,67.3720013 16.0068901,69.8525998 19.4495765,69.8525998 L19.4495765,69.8525998 Z M120,58.3300235 C117.898647,58.3309221 115.93968,58.9797068 114.348881,60.1099879 L114.346303,74 L110,74 L110.001365,58.0544548 C112.590678,55.3787423 116.016407,54.0008986 120,54 L120,58.3300235 Z M77.8426567,62.2175307 C81.1500086,63.496334 83,65.2015033 83,68.2245312 C83,71.6359014 80.125695,74 75.952549,74 C73.069113,74 70.6277051,72.9312111 69,70.6126524 L71.9379223,67.7204967 L71.9379223,67.7202019 C72.8818536,69.3101212 73.9843042,70.2010243 75.952549,70.2010243 C77.4486785,70.2010243 78.4720939,69.4648686 78.4720939,68.4193655 C78.4720939,67.2939833 77.6453682,66.636233 75.8356428,65.9768616 L74.4574673,65.4342139 C71.1111966,64.1554106 69.653986,62.1011017 69.653986,59.4656792 C69.653986,56.3257802 72.3319006,54 75.992815,54 C78.2962108,54 80.3012788,54.8138241 81.7420238,56.7886961 L78.9449577,59.5423161 C78.2757035,58.3405917 77.3305748,57.7979441 76.0706526,57.7979441 C74.9294329,57.7979441 73.9063168,58.3802365 73.9063168,59.3492502 C73.9063168,60.3564349 74.5757206,60.9771932 76.4257121,61.7133488 L77.8426567,62.2175307 L77.8426567,62.2175307 Z M101.578582,67.6612505 C100.517048,68.7497881 98.7788062,69.7748056 96.4242294,69.7748056 C93.3941731,69.7748056 91.051118,67.9145942 90.6068408,65.1625953 L106,65.1625953 L106,63.9993368 C105.716873,57.7976493 101.95972,54 96.3426557,54 C90.4441543,54 86,58.3405917 86,63.9993368 C86,69.6594083 90.4441543,74 96.4242294,74 C99.9798293,74 102.928466,72.5660071 104.665786,70.6282746 L104.582369,70.5429424 L101.578582,67.6612505 Z M96.09705,58 C98.6654733,58 100.493742,59.3336316 101,62 L91,62 C91.7002101,59.5292627 93.8023197,58 96.09705,58 L96.09705,58 Z M43,70.0767036 L43,74 L32,73.9992391 L32,54 L36.436842,54 L36.4371488,70.0780733 L43,70.0767036 Z M55,70 C51.4660381,70 49,67.4122968 49,64 C49,60.5885978 51.4660381,58 55,58 C58.4933326,58 61,60.5885978 61,64 C61,67.4122968 58.4933326,70 55,70 L55,70 Z M55.5,54 C49.4593053,54 45,58.3405917 45,63.9993368 C45,69.6594083 49.4593053,74 55.5,74 C61.5003083,74 66,69.6594083 66,63.9993368 C66,58.3405917 61.5003083,54 55.5,54 L55.5,54 Z" id="RGB_closer_logo_color" fill="#FFFFFF"></path>
    </g>
</svg>